<?xml version="1.0" encoding="UTF-8"?>
<svg id="Layer_2" data-name="Layer 2" xmlns="http://www.w3.org/2000/svg" viewBox="0 0 18.8 14.05">
  <defs>
    <style>
      .cls-1 {
        fill: #af9374;
        fill-rule: evenodd;
        stroke-width: 0px;
      }
    </style>
  </defs>
  <g id="Layer_2-2" data-name="Layer 2">
    <g id="mail">
      <path class="cls-1" d="m16.45,0H2.35C1.05,0,0,1.2,0,2.68v8.7c0,1.48,1.05,2.68,2.35,2.68h14.1c1.3,0,2.35-1.2,2.35-2.68V2.68c0-1.48-1.05-2.68-2.35-2.68ZM1.17,3.51l4.11,3.51-4.11,3.51V3.51Zm15.27,9.2H2.35c-.65,0-1.17-.6-1.17-1.34l4.6-3.93,2.57,2.19c.31.27.68.4,1.06.4s.74-.13,1.06-.4l2.57-2.19,4.6,3.93c0,.74-.53,1.34-1.17,1.34Zm1.17-2.17l-4.11-3.51,4.11-3.51v7.03Zm-7.52-1.44c-.21.18-.45.27-.7.27s-.5-.09-.71-.27l-2.43-2.08-.49-.42L1.17,2.68h0c0-.74.53-1.34,1.17-1.34h14.1c.65,0,1.17.6,1.17,1.34l-7.52,6.42Z"/>
    </g>
  </g>
</svg>