<?xml version="1.0" encoding="UTF-8"?>
<svg id="Layer_2" data-name="Layer 2" xmlns="http://www.w3.org/2000/svg" viewBox="0 0 16.05 21.42">
  <defs>
    <style>
      .cls-1 {
        fill: #af9374;
        fill-rule: evenodd;
        stroke-width: 0px;
      }
    </style>
  </defs>
  <g id="Layer_2-2" data-name="Layer 2">
    <g id="location">
      <path class="cls-1" d="m8.02,3.85c-2.21,0-4.01,1.8-4.01,4.02s1.8,4.02,4.01,4.02,4.01-1.8,4.01-4.02-1.8-4.02-4.01-4.02Zm0,7.36c-1.84,0-3.34-1.5-3.34-3.35s1.5-3.35,3.34-3.35,3.34,1.5,3.34,3.35-1.5,3.35-3.34,3.35Zm0-11.21C3.6,0,0,3.56,0,8.04s4.01,9.48,6.94,12.85c.01.01.48.54,1.06.54h.05c.58,0,1.05-.53,1.06-.54,2.93-3.37,6.94-8.16,6.94-12.85S12.45,0,8.02,0Zm.08,20.01s-.05.04-.09.07c0-.02-.06-.06-.09-.09-2.45-2.82-6.59-7.59-6.59-11.95,0-3.69,3-6.7,6.69-6.7s6.69,3,6.69,6.7c0,4.36-4.14,9.12-6.61,11.97Z"/>
    </g>
  </g>
</svg>