<?xml version="1.0" encoding="UTF-8"?>
<svg id="Layer_2" data-name="Layer 2" xmlns="http://www.w3.org/2000/svg" viewBox="0 0 130.2 40.06">
  <defs>
    <style>
      .cls-1 {
        fill: #af9374;
      }

      .cls-1, .cls-2 {
        stroke-width: 0px;
      }

      .cls-2 {
        fill: #000000;
      }

      .cls-3 {
        fill:#000000;
        stroke: #000000;
        stroke-miterlimit: 10;
        stroke-width: .08px;
      }
    </style>
  </defs>
  <g id="Layer_2-2" data-name="Layer 2">
    <g>
      <g>
        <polygon class="cls-1" points="44.66 6.61 52.07 0 25.6 0 17.77 0 9.64 7.52 6.29 16.73 3.88 23.34 0 34.01 2.37 36.43 17.11 23.34 25.92 23.34 33.33 16.73 19.52 16.73 23.2 6.61 44.66 6.61"/>
        <polygon class="cls-1" points="24.3 25.64 17.59 25.64 7.96 34.21 5.83 40.06 19.05 40.06 23.85 40.06 31.24 33.45 21.46 33.45 24.3 25.64"/>
      </g>
      <g>
        <path class="cls-2" d="m55.65,14.45h-9.97l-1.4,3.84h7.46l-2.16,5.94h-7.46l-2.62,7.21h-5.94l6.94-19.02,4.26-3.9h13.05l-2.16,5.94Z"/>
        <path class="cls-2" d="m58.67,8.51h5.94l-8.34,22.92h-5.94l8.34-22.92Z"/>
        <path class="cls-2" d="m79.27,14.45h-4.98l-6.18,16.99h-5.94l6.18-16.99h-4.98l2.16-5.94h15.91l-2.16,5.94Z"/>
        <path class="cls-2" d="m82.06,8.51h5.94l-6.18,16.99h8.92l-2.31,5.94h-11.85l-1.82-2.86,7.3-20.07Z"/>
        <path class="cls-2" d="m105.57,31.43h-5.94l2.62-7.21h-4.03l-2.62,7.21h-5.94l7.3-20.07,3.9-2.86h10.19l1.82,2.86-7.3,20.07Zm-1.15-13.14l1.4-3.84h-4.03l-1.4,3.84h4.03Z"/>
        <path class="cls-2" d="m123.94,28.58l-3.9,2.86h-13.05l8.34-22.92h13.05l1.82,2.86-2.31,6.35-3.9,2.86,1.82,2.86-1.87,5.14Zm-1.22-12.6l.55-1.52h-4.29l-.55,1.52h4.29Zm-3.47,9.52l.55-1.52h-4.29l-.55,1.52h4.29Z"/>
      </g>
      <g>
        <path class="cls-3" d="m36.47,33.78v4.19h-.42v-1.96h-2.27v1.96h-.42v-4.19h.42v1.88h2.27v-1.88h.42Z"/>
        <path class="cls-3" d="m38.45,34.13v1.57h1.59v.35h-1.59v1.59h1.77v.35h-2.19v-4.2h2.19v.35h-1.77Z"/>
        <path class="cls-3" d="m44.07,36.98h-1.91l-.37,1h-.44l1.53-4.14h.47l1.52,4.14h-.44l-.37-1Zm-.13-.35l-.83-2.27-.83,2.27h1.66Z"/>
        <path class="cls-3" d="m46.57,37.63h1.51v.34h-1.93v-4.19h.42v3.85Z"/>
        <path class="cls-3" d="m51.73,33.78v.35h-1.16v3.84h-.42v-3.84h-1.17v-.35h2.75Z"/>
        <path class="cls-3" d="m56.11,33.78v4.19h-.42v-1.96h-2.27v1.96h-.42v-4.19h.42v1.88h2.27v-1.88h.42Z"/>
        <path class="cls-3" d="m62.34,36.98h-1.91l-.37,1h-.44l1.53-4.14h.47l1.52,4.14h-.44l-.37-1Zm-.13-.35l-.83-2.27-.83,2.27h1.66Z"/>
        <path class="cls-3" d="m67.58,37.98h-.42l-2.32-3.53v3.53h-.42v-4.19h.42l2.32,3.52v-3.52h.42v4.19Z"/>
        <path class="cls-3" d="m71.57,34.04c.33.17.59.41.76.73.18.32.26.69.26,1.13s-.09.8-.26,1.12c-.18.31-.43.55-.76.72s-.73.25-1.19.25h-1.24v-4.19h1.24c.46,0,.86.08,1.19.25Zm.14,3.13c.31-.31.46-.73.46-1.28s-.15-.98-.46-1.29-.75-.46-1.33-.46h-.82v3.5h.82c.58,0,1.03-.15,1.33-.46Z"/>
        <path class="cls-3" d="m78.47,33.78v.35h-1.85v1.57h1.56v.35h-1.56v1.93h-.42v-4.19h2.27Z"/>
        <path class="cls-3" d="m80.18,33.78v4.19h-.42v-4.19h.42Z"/>
        <path class="cls-3" d="m84.19,33.78v.35h-1.16v3.84h-.42v-3.84h-1.17v-.35h2.75Z"/>
        <path class="cls-3" d="m88.62,37.98h-.42l-2.32-3.53v3.53h-.42v-4.19h.42l2.32,3.52v-3.52h.42v4.19Z"/>
        <path class="cls-3" d="m90.59,34.13v1.57h1.59v.35h-1.59v1.59h1.77v.35h-2.19v-4.2h2.19v.35h-1.77Z"/>
        <path class="cls-3" d="m94.33,37.87c-.21-.1-.37-.23-.49-.4-.12-.17-.18-.36-.19-.58h.44c.02.2.11.38.27.54.16.15.39.23.7.23.28,0,.51-.07.67-.22.17-.15.25-.33.25-.55,0-.18-.05-.32-.14-.43s-.21-.19-.34-.25c-.14-.05-.32-.11-.56-.18-.28-.08-.5-.15-.67-.22-.16-.07-.3-.18-.42-.34-.12-.15-.17-.36-.17-.62,0-.22.06-.41.17-.58.11-.17.27-.3.47-.4.2-.1.44-.14.7-.14.39,0,.7.1.94.28.24.19.37.43.41.73h-.46c-.03-.17-.12-.32-.28-.46-.16-.13-.38-.2-.65-.2-.25,0-.46.07-.63.2-.17.13-.25.32-.25.55,0,.18.05.32.14.43.09.11.21.19.34.25.14.06.32.12.56.18.27.08.49.15.66.22.17.07.31.19.43.34s.17.36.17.61c0,.2-.05.38-.16.56-.1.18-.26.32-.46.43s-.45.16-.73.16-.52-.05-.73-.14Z"/>
        <path class="cls-3" d="m98.36,37.87c-.21-.1-.37-.23-.49-.4-.12-.17-.18-.36-.19-.58h.44c.02.2.11.38.27.54.16.15.39.23.7.23.28,0,.51-.07.67-.22.17-.15.25-.33.25-.55,0-.18-.05-.32-.14-.43s-.21-.19-.34-.25c-.14-.05-.32-.11-.56-.18-.28-.08-.5-.15-.67-.22-.16-.07-.3-.18-.42-.34-.12-.15-.17-.36-.17-.62,0-.22.06-.41.17-.58.11-.17.27-.3.47-.4.2-.1.44-.14.7-.14.39,0,.7.1.94.28.24.19.37.43.41.73h-.46c-.03-.17-.12-.32-.28-.46-.16-.13-.38-.2-.65-.2-.25,0-.46.07-.63.2-.17.13-.25.32-.25.55,0,.18.05.32.14.43.09.11.21.19.34.25.14.06.32.12.56.18.27.08.49.15.66.22.17.07.31.19.43.34s.17.36.17.61c0,.2-.05.38-.16.56-.1.18-.26.32-.46.43s-.45.16-.73.16-.52-.05-.73-.14Z"/>
        <path class="cls-3" d="m104.17,34.77c.18-.33.43-.58.74-.76.31-.18.66-.27,1.04-.27.47,0,.87.11,1.2.33s.58.53.73.94h-.49c-.12-.28-.3-.51-.55-.67-.25-.16-.54-.24-.89-.24-.31,0-.58.07-.83.22-.25.14-.44.35-.58.62-.14.27-.21.58-.21.94s.07.67.21.94c.14.27.33.47.58.62.25.14.52.22.83.22.35,0,.64-.08.89-.24.25-.16.43-.38.55-.66h.49c-.15.4-.4.71-.73.93-.34.22-.74.33-1.2.33-.38,0-.73-.09-1.04-.27-.31-.18-.56-.43-.74-.76-.18-.32-.27-.69-.27-1.1s.09-.78.27-1.11Z"/>
        <path class="cls-3" d="m109.73,37.63h1.51v.34h-1.93v-4.19h.42v3.85Z"/>
        <path class="cls-3" d="m112.84,33.78v2.64c0,.42.1.72.3.92.2.2.47.3.81.3s.61-.1.81-.3c.19-.2.29-.51.29-.93v-2.64h.42v2.63c0,.53-.14.93-.42,1.2-.28.27-.65.4-1.1.4s-.82-.13-1.1-.4c-.28-.27-.42-.67-.42-1.2v-2.63h.42Z"/>
        <path class="cls-3" d="m119.56,36.17c.16.2.25.42.25.68,0,.21-.05.4-.16.57-.11.17-.26.3-.46.4-.2.1-.45.15-.73.15h-1.45v-4.19h1.41c.42,0,.75.1.97.29.22.2.33.45.33.76,0,.26-.07.47-.21.63-.14.16-.32.28-.54.34.24.04.44.16.6.36Zm-2.14-.53h.98c.28,0,.5-.07.66-.2.15-.13.23-.32.23-.55s-.08-.41-.23-.55c-.15-.13-.38-.2-.67-.2h-.96v1.5Zm1.71,1.77c.17-.14.25-.34.25-.59s-.09-.45-.27-.6c-.18-.15-.42-.22-.72-.22h-.98v1.64h1c.3,0,.54-.07.71-.22Z"/>
      </g>
      <g>
        <path class="cls-2" d="m33.86,9.55h-.87l-1.08,2.96h-1.03l1.08-2.96h-.87l.38-1.03h2.77l-.38,1.03Z"/>
        <path class="cls-2" d="m35.85,12.5h-.99l.47-1.3h-.74l-.47,1.3h-1.03l1.45-3.99h1.03l-.6,1.66h.7l.6-1.66h1.03l-1.45,3.99Z"/>
        <path class="cls-2" d="m38.92,12.5h-2.27l-.32-.5,1.09-2.99.68-.5h2.27l-.38,1.03h-1.73l-.16.45h1.3l-.38,1.03h-1.3l-.16.44h1.73l-.38,1.03Z"/>
      </g>
    </g>
  </g>
</svg>