<?xml version="1.0" encoding="UTF-8"?>
<svg id="Layer_2" data-name="Layer 2" xmlns="http://www.w3.org/2000/svg" viewBox="0 0 14.71 21.42">
  <defs>
    <style>
      .cls-1 {
        fill: #af9374;
        fill-rule: evenodd;
        stroke-width: 0px;
      }
    </style>
  </defs>
  <g id="Layer_2-2" data-name="Layer 2">
    <g id="phone">
      <path class="cls-1" d="m12.7,0H2.01C.9,0,0,.9,0,2.01v17.41c0,1.11.9,2.01,2.01,2.01h10.7c1.11,0,2.01-.9,2.01-2.01V2.01c0-1.11-.9-2.01-2.01-2.01Zm.67,19.42c0,.37-.3.67-.67.67H2.01c-.37,0-.67-.3-.67-.67v-1.34h12.03s0,1.34,0,1.34Zm0-2.01H1.34s0-13.39,0-13.39h12.03s0,13.39,0,13.39Zm0-14.06H1.34s0-1.34,0-1.34c0-.37.3-.67.67-.67h10.7c.37,0,.67.3.67.67v1.34Zm-5.01-1.34h-2.01c-.18,0-.33.15-.33.33s.15.33.33.33h2.01c.18,0,.33-.15.33-.33s-.15-.33-.33-.33Zm-1.34,17.4h.67c.18,0,.33-.15.33-.33s-.15-.33-.33-.33h-.67c-.18,0-.33.15-.33.33s.15.33.33.33Z"/>
    </g>
  </g>
</svg>