<?xml version="1.0" encoding="UTF-8"?>
<svg id="Layer_2" data-name="Layer 2" xmlns="http://www.w3.org/2000/svg" viewBox="0 0 13.73 13.73">
  <defs>
    <style>
      .cls-1 {
        fill: #ebe2ce;
        stroke-width: 0px;
      }
    </style>
  </defs>
  <g id="Layer_2-2" data-name="Layer 2">
    <path class="cls-1" d="m6.86,0C3.07,0,0,3.07,0,6.86s3.07,6.86,6.86,6.86,6.87-3.07,6.87-6.86S10.65,0,6.86,0Zm1.98,3.7c-.28-.06-.54-.1-.8-.1s-.43.06-.54.18c-.11.11-.16.34-.16.67v.46h1.3v1.37h-1.3v5.18h-1.73v-5.18h-.96v-1.37h.96v-.49c0-.55.06-.97.17-1.23.12-.28.33-.49.65-.66.31-.17.71-.26,1.19-.26s.97.07,1.45.22l-.23,1.21Z"/>
  </g>
</svg>