<?xml version="1.0" encoding="UTF-8"?>
<svg id="Layer_2" data-name="Layer 2" xmlns="http://www.w3.org/2000/svg" viewBox="0 0 13.73 13.73">
  <defs>
    <style>
      .cls-1 {
        fill: #ebe2ce;
        stroke-width: 0px;
      }
    </style>
  </defs>
  <g id="Layer_2-2" data-name="Layer 2">
    <polygon class="cls-1" points="7.98 6.82 6.17 5.83 5.85 5.93 5.85 7.85 6.17 7.95 8.06 7.01 7.98 6.82"/>
    <path class="cls-1" d="m6.87,0C3.07,0,0,3.07,0,6.87s3.07,6.87,6.87,6.87,6.87-3.07,6.87-6.87S10.66,0,6.87,0Zm3.68,7.85c0,.91-.74,1.65-1.65,1.65h-4.22c-.91,0-1.65-.74-1.65-1.65v-1.96c0-.91.74-1.65,1.65-1.65h4.22c.91,0,1.65.74,1.65,1.65v1.96Z"/>
  </g>
</svg>