<?xml version="1.0" encoding="UTF-8"?>
<svg id="Layer_2" data-name="Layer 2" xmlns="http://www.w3.org/2000/svg" viewBox="0 0 13.73 13.73">
  <defs>
    <style>
      .cls-1 {
        fill: #ebe2ce;
        stroke-width: 0px;
      }
    </style>
  </defs>
  <g id="Layer_2-2" data-name="Layer 2">
    <path class="cls-1" d="m10.41,8.53c0,.99-.8,1.79-1.79,1.79h-3.44c-.99,0-1.79-.8-1.79-1.79v-3.44c0-.99.8-1.79,1.79-1.79h3.44c.99,0,1.79.8,1.79,1.79v3.44Zm.82-3.44c0-1.44-1.17-2.6-2.6-2.6h-3.44c-1.44,0-2.6,1.17-2.6,2.6v3.44c0,1.44,1.17,2.6,2.6,2.6h3.44c1.44,0,2.6-1.17,2.6-2.6v-3.44Zm-4.31,3.14c-.75,0-1.37-.61-1.37-1.37s.61-1.37,1.37-1.37,1.37.61,1.37,1.37-.61,1.37-1.37,1.37m0-3.5c-1.18,0-2.13.96-2.13,2.13s.96,2.13,2.13,2.13,2.13-.96,2.13-2.13-.96-2.13-2.13-2.13m2.26-.65c-.28,0-.51.23-.51.51s.23.51.51.51.51-.23.51-.51-.23-.51-.51-.51m-2.32,9.65c-3.79,0-6.87-3.08-6.87-6.87S3.08,0,6.87,0s6.87,3.08,6.87,6.87-3.08,6.87-6.87,6.87"/>
  </g>
</svg>