<?xml version="1.0" encoding="UTF-8"?>
<svg id="Layer_2" data-name="Layer 2" xmlns="http://www.w3.org/2000/svg" viewBox="0 0 13.73 13.73">
  <defs>
    <style>
      .cls-1 {
        fill: #ebe2ce;
        stroke-width: 0px;
      }
    </style>
  </defs>
  <g id="Layer_2-2" data-name="Layer 2">
    <path class="cls-1" d="m4.62,3.75c-.15.02-.31,0-.48,0l.03.05c.24.31.47.62.71.92,1.27,1.66,2.54,3.31,3.79,4.98.13.17.25.26.47.23.13-.02.27,0,.43,0l-.05-.07c-1.48-1.96-2.96-3.92-4.44-5.89-.13-.17-.25-.25-.46-.22Z"/>
    <path class="cls-1" d="m6.87,0C3.07,0,0,3.07,0,6.87s3.07,6.87,6.87,6.87,6.86-3.07,6.86-6.87S10.66,0,6.87,0Zm4.14,10.72c-.8,0-1.6,0-2.4,0l-.18-.09c-.65-.85-1.29-1.7-1.94-2.55l-.05-.06c-.12.14-.24.27-.36.41-.64.73-1.28,1.47-1.92,2.2l-.18.08c-.36,0-.73,0-1.09,0h-.11c1.02-1.17,2.03-2.33,3.05-3.49-1.07-1.4-2.13-2.8-3.22-4.21h.11c.83,0,1.66,0,2.48,0l.16.08c.59.78,1.17,1.56,1.76,2.34l.04.04c.13-.15.27-.3.4-.45.56-.65,1.13-1.29,1.69-1.94l.16-.07c.37,0,.74,0,1.11,0h.11c-.96,1.1-1.9,2.18-2.85,3.26,1.11,1.48,2.23,2.95,3.35,4.44h-.12Z"/>
  </g>
</svg>