<svg id="Layer_2" data-name="Layer 2" xmlns="http://www.w3.org/2000/svg" viewBox="0 0 104 103.31">
  <defs>
    <style>
      .watch-1 {
        fill: #ae9274;
        stroke-width: 0px;
      }
    </style>
  </defs>
  <g id="Layer_2-2" data-name="Layer 2">
    <g>
      <path class="watch-1" d="m67.49,14.26c-1.89-1.79-5.53-6.42-8.65-5.35-1.59.55-2.72,1.91-3.22,3.44-2.55-2.21-5.34-3.72-8.32-3.16-2.31.43-4.41,1.73-6.27,3.25-3.18-3.34-7.38-9.05-11.27-11.33-1.23-.72-1.86-1.31-3.43-1.05-2.38.41-5,4.07-6.53,5.62-2.71,2.75-5.36,5.56-8.12,8.27-2.63,2.59-5.25,5.17-7.73,7.9C2.72,23.2.22,25.15.02,27.06c-.18,1.66,1.14,2.42,2.26,3.53,3.43,3.43,6.84,6.87,10.32,10.25-.85.89-1.58,1.84-2.05,2.91-2.85,6.45,5.51,13.65,9.19,17.83,6.73,7.62,14.01,14.75,21.63,21.48,3.99,3.52,10.5,11.81,16.6,10.04,1.54-.45,3.03-1.4,4.44-2.54,3.48,3.67,7.29,8.71,11.47,11.5,1.44.96,2.51,1.58,4.26,1.09,2.52-.72,4.9-4.07,6.65-5.85,2.46-2.5,4.88-5.04,7.35-7.52,2.28-2.28,4.59-4.5,6.79-6.86,1.52-1.63,4.69-4.01,5.05-6.25.28-1.74-1.07-2.53-2.24-3.69-3.52-3.52-7.02-7.06-10.6-10.52.06-.06.12-.11.18-.17,1.7-1.71,3.28-3.59,3.36-6.11.22-6.76-8.03-11.66-12.12-15.81-4.71-4.78-9.38-9.59-14.07-14.38,1.77-.51,3.28-1.8,4.11-3.66,1.44-3.24-3.1-6.18-5.09-8.06ZM3.48,26.19c.42-1.59,3.45-3.85,4.59-5.05,1.76-1.84,3.57-3.62,5.39-5.4,3.41-3.35,6.66-6.86,10.06-10.23,3-2.96,5.83-1.14,8.49,1.49,2.39,2.36,4.79,4.7,7.13,7.11-.19.18-.39.37-.58.55-3.87,3.82-7.59,7.91-11.36,11.83-3.54,3.3-6.85,6.81-10.24,10.26-.76.78-1.66,1.55-2.55,2.34-2.84-2.59-11.85-9.43-10.93-12.92Zm92.66,44.78c2.53,2.53,5.24,4.17,3.25,7.73-1.96,3.5-6.19,6.44-9.04,9.3-3.05,3.06-6,6.2-9.06,9.24-.66.66-1.62,2.13-2.52,2.47-2.21.84-4.91-1.67-6.43-2.81-2.91-2.18-5.51-5.32-8.04-8,1.27-1.19,2.47-2.42,3.55-3.43,4.37-4.06,8.41-8.42,12.54-12.71,2.87-2.98,5.95-5.71,8.92-8.55,2.3,2.23,4.56,4.49,6.82,6.76Zm-12.08-25.65c1.21,1.09,2.51,2.08,3.66,3.25,2.67,2.71,4.77,6.83,2.93,10.8-1.48,3.18-7.15,6.63-9.55,9.06-3.35,3.4-6.58,6.91-9.93,10.31-2.67,2.71-8.83,10.47-12.53,11.2-5.78,1.14-10.82-4.54-14.7-7.94-3.28-2.87-6.48-5.82-9.62-8.84-6.18-5.97-12.21-12.21-17.57-18.95-2.82-3.54-4.52-7.18-2.01-11.77.74-1.36,2.84-2.72,3.98-3.88,3.39-3.45,6.7-6.96,10.24-10.26,3.05-3.17,6.23-6.15,9.15-9.44,3.11-3.5,6.75-7.84,11.72-6.29,4.19,1.3,7.12,5.35,10.2,8.45,2.81,2.83,5.61,5.67,8.4,8.51,5.17,5.26,10.13,10.87,15.62,15.81Zm-14.32-24.04c-.22,1.46-1.44,2.73-3.25,2.46-.08-.01-.15,0-.22.01-.8-.81-1.59-1.63-2.38-2.43-1.75-1.77-3.81-4.47-6.13-6.89,0-.07.02-.13.01-.21-.19-1.45,1.45-2.94,2.75-2.65,1.41.31,3.71,3.1,4.76,4.07,1.15,1.07,2.28,2.18,3.38,3.31.9.93,1.29,1.01,1.09,2.33Z"/>
      <path class="watch-1" d="m53.68,30.17c-.05.03-.1.03-.15.07-.05.04-.09.08-.13.12-.04.03-.09.05-.14.09-.03.03-.04.06-.07.09-2.41,2.02-3.8,5.18-1.82,8.07,1.23,1.8,3.56,2.76,5.75,2.59.61,2.49.77,5.07,1.6,7.5-.12.07-.23.15-.34.23-.05.03-.1.03-.15.07-.05.04-.09.08-.13.12-.04.03-.09.05-.13.09-.03.03-.04.06-.07.09-.67.56-1.25,1.21-1.71,1.92-2.62-.58-5.27-1-7.94-1.3.19-1.49-.03-3.02-.77-4.2-1.56-2.49-5.46-3.09-7.84-1.48-.05.03-.1.03-.15.07-.05.04-.09.08-.13.12-.04.03-.09.05-.14.09-.03.03-.04.06-.07.09-2.41,2.02-3.8,5.18-1.82,8.07,1.3,1.9,3.82,2.88,6.12,2.56.24,2.54.43,5.14,1.16,7.58-.09.05-.18.11-.26.17-.05.03-.1.03-.15.07-.05.04-.09.08-.13.12-.04.03-.09.05-.13.09-.03.03-.04.06-.07.09-2.41,2.02-3.8,5.18-1.82,8.07,1.78,2.61,5.87,3.5,8.49,1.67,2.54-1.77,3.29-6.03,1.66-8.63-1.05-1.67-3.17-2.5-5.17-2.37-.72-2.49-.86-5.13-1.13-7.7,0-.03-.02-.05-.03-.08.75-.53,1.32-1.29,1.74-2.15.18.13.38.24.64.27,2.36.26,4.69.66,7,1.16-.21,1.24,0,2.54.85,3.79,1.78,2.61,5.87,3.5,8.49,1.67,2.54-1.77,3.29-6.03,1.66-8.63-1.03-1.65-3.1-2.48-5.08-2.39-.83-2.46-.98-5.06-1.61-7.56.11-.06.23-.1.33-.18,2.54-1.77,3.29-6.03,1.66-8.63-1.56-2.49-5.46-3.09-7.84-1.48Zm-3.36,36.23c.54,1.53-.07,3.99-1.53,4.8-1.49.83-3.84.15-4.75-1.23-1.12-1.71-.08-3.62,1.37-4.72.04-.03.06-.07.09-.11.06-.04.12-.05.17-.1,1.38-1.19,4.08-.25,4.65,1.36Zm-6.23-13.95c-1.49.83-3.84.15-4.76-1.23-1.12-1.71-.08-3.62,1.37-4.72.04-.03.06-.07.09-.11.06-.04.12-.05.17-.1,1.38-1.19,4.08-.26,4.65,1.36.54,1.53-.07,3.99-1.53,4.8Zm20.29-.11c.54,1.53-.07,3.99-1.53,4.8-1.49.83-3.84.15-4.76-1.23-1.12-1.71-.08-3.62,1.37-4.72.04-.03.06-.07.09-.11.06-.04.12-.05.17-.1,1.38-1.19,4.08-.25,4.65,1.36Zm-4.7-18.76c.54,1.53-.07,3.99-1.53,4.8-1.49.83-3.84.15-4.76-1.23-1.12-1.71-.08-3.62,1.37-4.72.04-.03.06-.07.09-.11.06-.04.12-.05.17-.1,1.38-1.19,4.08-.26,4.65,1.36Z"/>
      <path class="watch-1" d="m20.28,46.23c.47-1.55-1.97-2.19-2.43-.64-1.51,5.02,3.59,9.3,6.86,12.32,1.19,1.09,2.97-.68,1.78-1.78-2.48-2.29-7.36-6.08-6.21-9.9Z"/>
      <path class="watch-1" d="m21.99,41.17l-.08-.08c-1.14-1.14-2.92.63-1.78,1.78l.08.08c1.14,1.14,2.92-.63,1.78-1.78Z"/>
    </g>
  </g>
</svg>